<svg xmlns="http://www.w3.org/2000/svg" xmlns:xlink="http://www.w3.org/1999/xlink" width="289" zoomAndPan="magnify" viewBox="0 0 216.75 50.249999" height="67" preserveAspectRatio="xMidYMid meet" version="1.0"><defs><clipPath id="c97dc89743"><path d="M 1.46875 0 L 215.03125 0 L 215.03125 49.511719 L 1.46875 49.511719 Z M 1.46875 0 " clip-rule="nonzero"/></clipPath></defs><g clip-path="url(#c97dc89743)"><path fill="#ffffff" d="M 1.46875 0 L 215.03125 0 L 215.03125 49.511719 L 1.46875 49.511719 Z M 1.46875 0 " fill-opacity="1" fill-rule="nonzero"/><path fill="#ffffff" d="M 1.46875 0 L 215.03125 0 L 215.03125 49.511719 L 1.46875 49.511719 Z M 1.46875 0 " fill-opacity="1" fill-rule="nonzero"/></g><path stroke-linecap="butt" transform="matrix(0.738971, 0.000000000000000002, -0.000000000000000002, 0.738971, 6.421694, 4.581617)" fill="none" stroke-linejoin="miter" d="M 0.000245192 0.497451 L 275.600078 0.497451 " stroke="#40a2d8" stroke-width="1" stroke-opacity="1" stroke-miterlimit="4"/><path stroke-linecap="butt" transform="matrix(0.738971, 0, 0, 0.738971, 6.421694, 43.820953)" fill="none" stroke-linejoin="miter" d="M 0.000245192 0.50131 L 275.600078 0.50131 " stroke="#40a2d8" stroke-width="1" stroke-opacity="1" stroke-miterlimit="4"/><path stroke-linecap="butt" transform="matrix(-0.00274642, 0.738965, -0.738965, -0.00274642, 6.790864, 4.731096)" fill="none" stroke-linejoin="miter" d="M 0.0010069 0.499328 L 53.813577 0.500202 " stroke="#40a2d8" stroke-width="1" stroke-opacity="1" stroke-miterlimit="4"/><path stroke-linecap="butt" transform="matrix(0, 0.738971, -0.738971, 0, 209.930557, 4.869886)" fill="none" stroke-linejoin="miter" d="M 0.00163459 0.498067 L 53.211215 0.498067 " stroke="#40a2d8" stroke-width="1" stroke-opacity="1" stroke-miterlimit="4"/></svg>